<?xml version="1.0"?>
<svg width="640" height="480" xmlns="http://www.w3.org/2000/svg" xmlns:svg="http://www.w3.org/2000/svg">
 <!-- Created with SVG-edit - https://github.com/SVG-Edit/svgedit-->
 <g class="layer">
  <title>Layer 1</title>
  <path d="m-0.33,7.33c2.33,2.5 2.87,3.09 3.48,3.77c0.66,0.74 1.36,1.54 2.09,2.4c0.75,0.89 1.5,1.8 2.22,2.76c1.41,1.88 2.02,2.84 2.59,3.79c0.55,0.91 1.05,1.83 1.5,2.73c0.44,0.88 0.85,1.74 1.23,2.59c0.74,1.63 1.07,2.43 1.42,3.23c0.36,0.82 0.75,1.69 1.18,2.62c0.47,1.03 1.01,2.16 1.63,3.43c1.48,3.04 2.39,4.83 3.4,6.79c1.08,2.11 2.24,4.33 3.47,6.63c1.26,2.36 2.56,4.76 3.92,7.13c2.67,4.66 4.03,6.86 5.39,8.98c1.33,2.07 2.67,4.08 4.04,6.04c1.36,1.95 2.75,3.86 4.18,5.77c2.9,3.87 4.44,5.82 6,7.8c1.57,2 3.17,3.99 4.78,5.97c1.61,1.97 3.21,3.91 4.83,5.79c3.13,3.65 4.68,5.35 6.19,6.99c1.46,1.58 2.88,3.09 4.26,4.53c1.32,1.38 2.6,2.69 3.81,3.95c2.24,2.32 3.25,3.39 4.2,4.4c0.89,0.95 1.71,1.86 2.47,2.71c0.71,0.8 1.37,1.55 1.98,2.26c1.09,1.28 1.57,1.86 2.01,2.4c0.41,0.5 0.78,0.97 1.12,1.4c0.31,0.39 0.59,0.76 0.85,1.08c0.44,0.56 0.63,0.8 0.8,1c0.15,0.18 0.29,0.34 0.41,0.47c0.1,0.12 0.2,0.21 0.27,0.29c0.12,0.12 0.17,0.17 0.21,0.21c0.04,0.04 0.08,0.09 0.12,0.14c0.06,0.07 0.13,0.16 0.21,0.28c0.25,0.33 0.41,0.55 0.6,0.8c0.21,0.28 0.43,0.58 0.67,0.9c0.24,0.33 0.48,0.66 0.71,0.99c0.44,0.63 13.64,-102.06 0.8,1.19c-12.84,103.25 0.3,0.48 0.45,0.69c0.13,0.19 0.26,0.37 0.4,0.51c0.27,0.26 0.44,0.34 0.61,0.41c0.19,0.08 0.42,0.14 0.67,0.21c0.3,0.08 0.64,0.17 1.03,0.3c0.97,0.31 1.55,0.54 2.19,0.8c0.69,0.28 1.42,0.59 2.17,0.92c0.77,0.34 1.54,0.69 2.31,1.06c1.47,0.7 2.15,1.05 2.8,1.4c0.63,0.34 1.25,0.68 1.86,1.04c0.62,0.37 1.25,0.76 1.9,1.18c1.42,0.92 2.19,1.45 3.01,2.01c0.88,0.6 1.81,1.23 2.79,1.9c1.04,0.71 2.13,1.45 3.29,2.22c2.48,1.65 3.81,2.51 5.2,3.4c1.45,0.92 2.96,1.87 4.53,2.83c1.63,0.99 3.31,2 5.07,3.01c3.67,2.1 5.6,3.14 7.59,4.19c2.02,1.07 4.07,2.14 6.15,3.2c2.09,1.06 4.19,2.12 6.29,3.15c4.14,2.05 6.18,3.03 8.19,4c1.98,0.95 3.93,1.88 5.85,2.79c1.9,0.89 3.77,1.77 5.63,2.61c3.64,1.65 5.43,2.43 7.2,3.2c1.75,0.76 3.47,1.49 5.17,2.21c1.67,0.71 3.32,1.4 4.95,2.07c3.16,1.32 4.69,1.97 6.19,2.6c1.45,0.61 2.85,1.2 4.2,1.77c1.28,0.54 2.48,1.04 3.61,1.5c1.99,0.8 2.84,1.12 3.6,1.4c0.67,0.24 1.26,0.45 1.79,0.62c0.46,0.15 0.86,0.28 1.2,0.4c0.57,0.2 0.81,0.3 1.01,0.41c0.19,0.09 0.36,0.19 0.51,0.28c0.15,0.08 0.28,0.17 0.42,0.24c0.28,0.13 0.44,0.17 0.6,0.2c0.17,0.03 0.35,0.05 0.54,0.06c0.19,0.01 0.38,0.02 0.58,0.02c0.4,0 0.6,0 0.82,0c0.26,-0.01 0.58,-0.02 0.97,-0.06c0.49,-0.04 1.09,-0.11 1.83,-0.19c1.95,-0.23 3.19,-0.41 4.62,-0.6c1.61,-0.22 3.39,-0.46 5.35,-0.73c2.12,-0.29 4.4,-0.59 6.83,-0.91c5.31,-0.69 8.18,-1.03 11.15,-1.39c3.05,-0.37 6.14,-0.73 9.25,-1.1c3.08,-0.36 6.12,-0.71 9.07,-1.05c5.52,-0.64 8.03,-0.93 10.41,-1.2c2.28,-0.27 4.5,-0.53 6.71,-0.79c2.23,-0.26 4.53,-0.54 6.93,-0.83c5.3,-0.64 8.25,-1.01 11.39,-1.4c3.26,-0.4 6.6,-0.81 9.97,-1.21c3.34,-0.4 6.61,-0.78 9.75,-1.12c5.69,-0.61 8.15,-0.83 10.36,-1c1.97,-0.15 3.72,-0.26 5.27,-0.34c1.38,-0.07 2.6,-0.11 3.69,-0.16c1.87,-0.08 2.68,-0.13 3.43,-0.21c0.69,-0.07 1.33,-0.15 1.91,-0.26c0.54,-0.1 1.05,-0.21 1.51,-0.35c0.85,-0.26 1.24,-0.43 1.62,-0.6c0.38,-0.18 0.75,-0.38 1.13,-0.61c0.4,-0.24 0.82,-0.53 1.26,-0.84c1.02,-0.72 1.58,-1.14 2.21,-1.6c0.67,-0.49 1.39,-1.01 2.16,-1.54c0.81,-0.56 1.66,-1.14 2.56,-1.72c1.9,-1.22 2.93,-1.8 4,-2.4c1.09,-0.61 2.22,-1.21 3.38,-1.82c1.19,-0.62 2.41,-1.24 3.65,-1.86c2.56,-1.29 3.87,-1.94 5.2,-2.6c1.35,-0.67 2.72,-1.35 4.11,-2.04c1.41,-0.69 2.84,-1.39 4.29,-2.08c2.96,-1.41 4.47,-2.1 6.02,-2.81c1.59,-0.73 3.25,-1.47 4.98,-2.24c1.82,-0.81 3.75,-1.66 5.79,-2.55c4.5,-1.97 6.97,-3.05 9.59,-4.19c2.73,-1.19 5.54,-2.42 8.43,-3.67c2.93,-1.27 5.88,-2.55 8.84,-3.81c5.8,-2.48 8.62,-3.65 11.37,-4.79c2.67,-1.1 5.28,-2.17 7.82,-3.18c2.46,-0.99 4.86,-1.93 7.18,-2.82c4.43,-1.7 6.55,-2.46 8.61,-3.21c1.99,-0.72 3.92,-1.41 5.79,-2.08c1.83,-0.65 3.61,-1.29 5.34,-1.94c3.37,-1.27 5,-1.93 6.61,-2.61c1.59,-0.66 3.15,-1.35 4.69,-2.04c1.53,-0.68 3.05,-1.38 4.56,-2.08c3.01,-1.39 4.5,-2.1 6,-2.79c1.48,-0.69 2.95,-1.37 4.4,-2.04c1.42,-0.66 2.82,-1.3 4.18,-1.91c2.59,-1.16 3.82,-1.69 5,-2.2c1.14,-0.49 2.26,-0.96 3.34,-1.41c1.07,-0.45 2.12,-0.88 3.16,-1.32c2.09,-0.88 3.14,-1.34 4.2,-1.8c1.06,-0.46 2.12,-0.93 3.18,-1.4c1.04,-0.46 2.07,-0.91 3.09,-1.35c1.95,-0.84 2.89,-1.23 3.8,-1.6c0.88,-0.36 1.73,-0.71 2.55,-1.05c0.8,-0.33 1.58,-0.66 2.33,-1c1.45,-0.67 2.14,-1.03 2.81,-1.4c0.68,-0.37 1.35,-0.76 2.05,-1.15c0.71,-0.41 1.45,-0.83 2.23,-1.25c1.68,-0.9 2.62,-1.34 3.6,-1.8c1.03,-0.48 2.1,-0.95 3.21,-1.44c1.14,-0.49 2.3,-0.99 3.48,-1.48c2.39,-1 3.59,-1.5 4.78,-1.99c1.18,-0.49 2.34,-0.97 3.48,-1.44c1.11,-0.46 2.18,-0.89 3.21,-1.31c1.91,-0.76 2.78,-1.09 3.6,-1.4c0.77,-0.29 1.51,-0.55 2.23,-0.79c0.69,-0.23 1.37,-0.45 2.05,-0.66c1.37,-0.41 2.08,-0.6 2.8,-0.8c0.72,-0.2 1.43,-0.39 2.11,-0.58c0.66,-0.18 1.28,-0.35 1.85,-0.54c0.95,-0.3 1.31,-0.45 1.6,-0.6c0.24,-0.12 0.42,-0.24 0.55,-0.36c0.12,-0.1 0.2,-0.22 0.29,-0.32c0.17,-0.2 0.28,-0.31 0.41,-0.4c0.14,-0.1 0.3,-0.19 0.47,-0.28c0.18,-0.09 0.37,-0.17 0.56,-0.24c0.39,-0.13 0.6,-0.17 0.8,-0.2c0.21,-0.03 0.43,-0.06 0.66,-0.08c0.25,-0.03 0.51,-0.05 0.79,-0.08c0.64,-0.08 1.01,-0.14 1.4,-0.2c0.42,-0.07 0.86,-0.15 1.33,-0.24c0.48,-0.09 0.99,-0.18 1.51,-0.28c1.08,-0.2 1.63,-0.3 2.19,-0.4c0.56,-0.1 1.1,-0.19 1.64,-0.28c0.51,-0.09 1,-0.17 1.46,-0.24c0.79,-0.12 1.12,-0.17 1.4,-0.2c0.25,-0.03 0.47,-0.05 0.66,-0.06c0.18,-0.01 0.35,-0.02 0.53,-0.02c0.37,0 0.58,0 0.81,0c0.25,0 0.52,-0.01 0.81,-0.02c0.31,-0.01 0.64,-0.03 0.99,-0.06c0.76,-0.07 1.17,-0.13 1.59,-0.2c0.44,-0.07 0.88,-0.14 1.33,-0.22c0.45,-0.07 0.89,-0.15 1.33,-0.22c0.83,-0.12 1.22,-0.16 1.59,-0.2c0.35,-0.03 0.68,-0.06 0.99,-0.08c0.29,-0.02 0.56,-0.05 0.81,-0.08c0.44,-0.07 0.63,-0.13 0.81,-0.2c0.18,-0.07 0.35,-0.14 0.55,-0.22c0.21,-0.08 0.45,-0.16 0.73,-0.22c0.69,-0.14 1.12,-0.17 1.6,-0.2c0.53,-0.03 1.11,-0.05 1.73,-0.06c0.65,-0.01 1.34,-0.02 2.05,-0.02c1.47,0 2.23,0 2.99,0c0.76,0 1.52,0 2.28,0c0.74,0 1.47,0 2.19,0c1.35,0 1.99,0 2.6,0c0.58,0 1.13,0 1.65,0c0.5,0 0.98,0 1.43,0c0.84,0 1.23,0 1.6,0c0.35,0 0.68,0 0.99,0c0.29,0 0.56,0 0.81,0c0.44,0 0.63,0 0.8,0c0.16,0 0.31,-0.01 0.45,-0.02c0.14,-0.01 0.27,-0.03 0.4,-0.06c0.29,-0.07 0.44,-0.13 0.6,-0.2c0.17,-0.07 0.33,-0.14 0.5,-0.22c0.16,-0.07 0.31,-0.15 0.45,-0.22c0.24,-0.12 0.33,-0.16 0.4,-0.2c0.06,-0.03 0.11,-0.05 0.15,-0.06c0.04,-0.01 0.07,-0.02 0.1,-0.02c0.08,0 0.14,0 0.21,0c0.08,0 0.17,-0.01 0.27,-0.02c0.12,-0.01 0.26,-0.03 0.41,-0.06c0.36,-0.07 0.57,-0.13 0.79,-0.2c0.23,-0.07 0.47,-0.14 0.71,-0.22c0.23,-0.07 0.46,-0.15 0.67,-0.22c0.35,-0.12 0.49,-0.16 0.6,-0.2c0.09,-0.03 0.17,-0.05 0.23,-0.06c0.06,-0.01 0.12,-0.02 0.19,-0.02c0.17,0 0.28,0 0.4,0c0.14,0 0.28,0 0.43,0c0.15,0 0.29,0 0.43,0c0.23,0 0.33,0 0.4,0c0.06,0 0.11,0 0.15,0c0.04,0 0.07,0 0.1,0c0.08,0 0.14,0 0.2,0c0.07,0 0.15,0 0.24,0l0.09,0l0.09,0l0.1,0" fill="#ff007f" id="svg_1" stroke="#000000" stroke-width="5"/>
  <path d="m4.67,400.33c4.41,-1.11 5.03,-1.42 5.69,-1.8c0.71,-0.41 1.44,-0.87 2.2,-1.39c0.8,-0.54 1.62,-1.12 3.28,-2.47c0.87,-0.71 1.72,-1.47 2.59,-2.26c0.88,-0.8 1.77,-1.64 2.65,-2.48c0.9,-0.85 1.78,-1.72 3.59,-3.43c0.9,-0.85 1.79,-1.68 2.68,-2.49c0.87,-0.79 1.72,-1.56 2.54,-2.29c0.79,-0.7 1.55,-1.37 2.95,-2.56c0.62,-0.53 1.2,-1.01 1.73,-1.43c0.49,-0.39 0.93,-0.74 1.34,-1.04c0.37,-0.27 0.69,-0.51 1.26,-0.86c0.23,-0.14 0.44,-0.25 0.63,-0.34c0.17,-0.08 0.33,-0.14 0.47,-0.2c0.14,-0.06 0.31,-0.08 0.88,-0.53c0.59,-0.47 1.21,-1.19 1.94,-2.07c0.56,-0.67 0.84,-1.05 1.5,-1.85c0.36,-0.43 0.72,-0.89 2.05,-2.35c0.48,-0.53 0.99,-1.06 1.51,-1.61c0.52,-0.55 1.05,-1.1 1.57,-1.64c0.51,-0.54 1.47,-1.57 2.3,-2.53c0.38,-0.44 0.73,-0.88 1.39,-1.65c0.57,-0.67 1.32,-1.5 2.02,-2.02c0.73,-0.54 1.6,-1.13 2.13,-1.51c0.76,-0.54 1.6,-0.99 2.28,-1.53c0.84,-0.67 1.12,-0.98 1.82,-1.63c0.4,-0.37 1.84,-1.7 2.42,-2.22c0.61,-0.55 1.25,-1.12 1.9,-1.71c0.65,-0.59 1.3,-1.17 1.92,-1.74c0.59,-0.54 1.62,-1.53 2.03,-1.96c0.36,-0.38 0.91,-1.01 1.42,-1.73c0.64,-0.91 1.4,-1.38 2.03,-1.79c0.71,-0.47 1.01,-1.33 1.62,-2.09c0.52,-0.64 1.01,-1.06 1.62,-1.49c1.11,-0.78 1.59,-1.01 2.58,-1.53c0.52,-0.27 1.58,-0.78 2.11,-1.02c1.03,-0.45 1.99,-0.81 2.91,-1.11c0.45,-0.15 1.36,-0.4 2.78,-0.83c0.51,-0.15 1.58,-0.48 2.13,-0.65c0.56,-0.17 1.69,-0.49 2.26,-0.62c1.65,-0.37 2.19,-0.41 3.23,-0.52c0.49,-0.05 1.45,-0.08 2.72,-0.38c0.79,-0.19 1.55,-0.54 1.96,-0.71c0.92,-0.37 1.45,-0.59 2.71,-0.96c0.73,-0.22 1.55,-0.41 2.42,-0.6c0.92,-0.21 1.88,-0.4 2.86,-0.6c1.01,-0.2 2.03,-0.4 4.05,-0.8c0.99,-0.2 1.96,-0.4 2.91,-0.6c0.94,-0.2 1.86,-0.4 2.76,-0.6c0.89,-0.2 1.77,-0.4 3.49,-0.8c0.85,-0.2 1.68,-0.4 2.5,-0.59c0.8,-0.19 1.59,-0.37 2.35,-0.54c0.74,-0.16 1.46,-0.32 2.82,-0.54c0.63,-0.1 1.24,-0.17 1.83,-0.22c0.56,-0.05 1.11,-0.09 1.64,-0.12c0.52,-0.03 1.03,-0.05 2.03,-0.15c1,-0.1 1.5,-0.18 2.48,-0.35c0.49,-0.09 1.44,-0.27 2.8,-0.58c0.87,-0.2 1.3,-0.3 2.15,-0.5c0.86,-0.2 2.2,-0.5 2.66,-0.6c0.94,-0.2 1.89,-0.37 2.36,-0.44c1.38,-0.21 2.26,-0.28 3.1,-0.32c0.77,-0.04 1.49,-0.04 2.69,-0.04c0.98,0 1.94,0 2.72,0c0.82,0 1.88,0 2.62,0c0.87,0 1.62,0 2.59,0c1.25,0 1.99,0 2.81,0c0.92,0 1.93,0 3.04,0c1.22,0 3.98,0 5.54,0c1.67,0 3.44,0 5.31,0c1.95,0 3.97,0 6.06,0c2.15,0 6.57,0 8.84,0c2.29,0 4.6,0 6.93,0c2.34,0 4.7,0 7.06,0c2.36,0 7.08,0 9.42,0c2.33,0 4.65,0 6.95,0c2.28,0 4.55,0 6.79,0c2.22,0 6.58,0 8.71,0c2.1,0 4.16,0 6.17,0c1.96,0 3.87,0 5.72,0c1.78,0 5.14,0 6.7,0c1.48,0 2.89,0 4.23,0c1.27,0 2.48,0 3.62,0c1.08,0 3.09,0 4.01,0c0.88,0 1.7,0 2.48,0c0.72,0 1.4,0 2.02,0c0.57,0 1.57,0 2,0c0.38,0 0.72,0 1.03,0c0.28,0 0.53,0 0.76,0c0.22,0 0.62,0 0.82,0c0.2,0 0.4,0 0.6,0c0.2,0 0.4,0 0.6,0c0.2,0 0.6,0 0.8,0c0.2,0 0.42,0 0.64,0c0.24,0 0.5,0 0.79,0c0.31,0 1.04,0 1.46,0c0.46,0 0.96,0 1.51,0.01c0.59,0.01 1.23,0.02 1.91,0.05c0.73,0.03 2.33,0.11 3.2,0.16c0.92,0.06 1.9,0.14 2.91,0.22c1.07,0.09 2.17,0.2 3.33,0.32c1.2,0.12 3.72,0.4 5.03,0.56c1.36,0.16 2.74,0.33 4.16,0.51c1.44,0.18 2.9,0.37 4.37,0.57c1.49,0.2 4.48,0.59 5.98,0.8c1.5,0.2 3,0.4 4.49,0.62c1.49,0.22 2.98,0.44 4.45,0.69c1.47,0.25 4.39,0.81 5.84,1.13c1.44,0.32 2.87,0.66 4.31,1.01c1.44,0.35 2.87,0.7 4.32,1.04c1.46,0.34 4.42,0.98 5.93,1.26c1.52,0.28 3.05,0.53 4.59,0.75c1.53,0.22 3.05,0.41 4.55,0.57c1.48,0.16 4.35,0.4 5.73,0.48c1.34,0.08 2.65,0.14 3.93,0.19c1.25,0.05 2.48,0.1 3.68,0.16c1.18,0.06 3.51,0.22 4.65,0.34c1.13,0.12 2.25,0.26 3.34,0.42c1.08,0.15 2.12,0.32 3.15,0.49c0.99,0.16 2.87,0.48 3.75,0.63c0.84,0.14 1.64,0.26 2.4,0.39c0.72,0.11 1.4,0.22 2.04,0.33c0.6,0.1 1.68,0.3 2.16,0.4c0.44,0.1 0.85,0.19 1.22,0.29c0.34,0.09 0.65,0.17 0.93,0.25c0.26,0.07 0.7,0.19 0.89,0.24c0.17,0.04 0.33,0.07 0.47,0.1c0.13,0.03 0.25,0.05 0.36,0.08c0.11,0.03 0.31,0.11 0.41,0.17c0.1,0.06 0.2,0.13 0.3,0.21c0.1,0.08 0.2,0.17 0.3,0.27c0.1,0.1 0.3,0.3 0.4,0.4c0.11,0.1 0.24,0.21 0.42,0.32c0.21,0.13 0.48,0.26 0.81,0.39c0.41,0.16 1.5,0.52 2.21,0.73c0.8,0.23 1.69,0.47 2.65,0.72c1.02,0.26 2.1,0.53 3.21,0.79c1.14,0.27 3.44,0.78 4.59,1.03c1.13,0.24 2.25,0.47 3.35,0.69c1.08,0.22 2.15,0.42 3.19,0.63c1.02,0.2 2.98,0.6 3.91,0.8c0.92,0.2 1.82,0.41 2.71,0.63c0.9,0.23 1.8,0.47 2.73,0.74c0.95,0.28 2.96,0.92 4.03,1.29c1.11,0.38 2.25,0.79 3.41,1.21c1.16,0.42 2.32,0.85 3.46,1.27c1.11,0.41 3.22,1.16 4.19,1.49c0.92,0.31 1.79,0.6 2.61,0.88c0.79,0.26 1.55,0.52 2.29,0.79c0.72,0.26 2.13,0.83 2.83,1.14c0.71,0.32 1.41,0.66 2.12,1.01c0.72,0.35 1.45,0.7 2.19,1.04c0.75,0.34 2.32,0.98 3.13,1.26c0.83,0.28 1.68,0.54 2.56,0.78c0.9,0.25 1.82,0.48 2.78,0.71c0.98,0.24 3.02,0.72 4.08,0.97c1.1,0.26 2.22,0.54 3.38,0.84c1.19,0.3 2.4,0.62 3.64,0.96c1.28,0.35 3.92,1.11 5.28,1.52c1.38,0.42 2.77,0.86 4.16,1.3c1.37,0.44 2.72,0.87 4.03,1.3c1.27,0.41 3.61,1.17 4.67,1.5c1,0.31 1.96,0.61 2.9,0.88c0.93,0.27 1.88,0.53 2.86,0.79c1.03,0.27 3.34,0.83 4.64,1.14c1.39,0.33 2.85,0.67 4.35,1.02c1.53,0.36 3.07,0.72 4.59,1.09c1.48,0.36 4.26,1.07 5.51,1.43c1.16,0.33 2.22,0.65 3.2,0.96c0.9,0.29 1.73,0.57 2.48,0.84c0.69,0.24 1.9,0.69 2.42,0.88c0.48,0.17 0.91,0.33 1.31,0.47c0.36,0.13 0.68,0.25 0.96,0.36c0.26,0.1 0.71,0.31 0.89,0.41c0.18,0.1 0.34,0.2 0.49,0.3c0.15,0.1 0.3,0.2 0.46,0.3c0.16,0.1 0.53,0.3 0.74,0.4c0.23,0.11 0.48,0.21 0.74,0.33c0.28,0.13 0.58,0.27 0.88,0.44c0.32,0.18 1,0.62 1.36,0.89c0.37,0.28 0.74,0.6 1.13,0.92c0.4,0.33 0.8,0.68 1.22,1.01c0.42,0.34 1.3,0.98 1.76,1.26c0.46,0.28 0.92,0.53 1.38,0.75c0.45,0.22 0.9,0.41 1.33,0.57c0.41,0.16 1.17,0.39 1.5,0.48c0.31,0.08 0.6,0.14 0.87,0.19c0.26,0.05 0.5,0.1 0.74,0.16c0.24,0.06 0.73,0.22 0.98,0.34c0.27,0.12 0.54,0.27 0.81,0.42c0.29,0.16 0.57,0.33 0.87,0.49c0.3,0.17 0.89,0.49 1.2,0.63c0.3,0.14 0.59,0.26 0.88,0.38c0.28,0.11 0.55,0.2 0.81,0.29c0.24,0.08 0.68,0.2 0.87,0.24c0.17,0.04 0.33,0.07 0.47,0.09c0.13,0.02 0.25,0.03 0.36,0.03c0.11,0 0.31,0 0.41,0c0.1,0 0.2,0 0.31,0.01c0.11,0.01 0.23,0.02 0.35,0.05c0.13,0.03 0.41,0.11 0.57,0.16c0.17,0.06 0.35,0.14 0.56,0.22c0.23,0.09 0.48,0.2 0.75,0.32c0.31,0.13 1.03,0.41 1.45,0.56c0.45,0.16 0.93,0.33 1.44,0.5c0.52,0.18 1.05,0.35 1.58,0.52c0.53,0.17 1.56,0.49 2.05,0.63c0.47,0.14 0.91,0.26 1.33,0.38c0.39,0.11 0.75,0.2 1.08,0.29c0.29,0.08 0.77,0.19 0.95,0.24c0.15,0.04 0.27,0.07 0.36,0.1c0.08,0.02 0.15,0.05 0.22,0.08c0.07,0.03 0.24,0.11 0.35,0.17c0.13,0.06 0.27,0.13 0.43,0.2c0.17,0.08 0.35,0.15 0.54,0.22c0.19,0.07 0.59,0.19 0.79,0.23c0.2,0.04 0.4,0.07 0.6,0.1c0.2,0.03 0.4,0.05 0.6,0.08c0.2,0.03 0.6,0.11 0.8,0.17c0.2,0.06 0.41,0.13 0.61,0.21c0.21,0.08 0.43,0.17 0.65,0.27c0.23,0.1 0.71,0.3 0.96,0.4c0.26,0.1 1.09,0.4 1.68,0.54c1.19,0.28 2.1,0.27 2.94,0.47c1.06,0.25 1.49,0.62 2.18,1.04c0.92,0.55 1.74,0.73 2.66,0.94c0.69,0.15 1.86,0.57 2.29,0.77c0.96,0.44 1.47,0.73 2.02,1.01c1.23,0.62 2.63,1.3 3.41,1.65c0.81,0.37 1.65,0.73 2.51,1.08c0.86,0.36 1.72,0.7 2.56,1.03c0.81,0.32 2.32,0.87 2.99,1.1c0.61,0.21 1.18,0.39 1.69,0.55c0.47,0.14 1.29,0.38 2.3,0.55c1.06,0.18 1.74,0.16 2.73,0.45c0.82,0.24 1.8,0.64 2.58,0.7c0.85,0.07 1.72,0.02 2.66,0.02c0.93,0 1.71,0 2.6,0c0.96,0 1.86,0 2.76,0c0.8,0 1.7,0 2.6,0c0.9,0 1.81,0 2.72,0c0.82,0 1.76,0 2.68,0c0.92,0 1.7,0 2.64,0c0.88,0 1.75,0 2.71,0c0.84,0 1.7,0.3 2.34,0.65c0.82,0.44 1.85,0.31 2.6,0.71c0.84,0.45 1.48,0.77 2.3,1.22c0.78,0.43 1.7,0.43 2.6,0.43c0.9,0 1.69,0 2.61,0l0.94,0l0.85,0" fill="none" id="svg_4" stroke="#000000" stroke-width="5"/>
  <path d="m622.67,85.33c0,2.02 0,2.86 0,3.49c0,1.03 0,2.15 0,2.92c0,0.79 0,1.99 0,2.79c0,0.8 0,1.6 0,2.8c0,0.8 0,1.6 0,2.4c0,0.8 0,2 0,2.81c0,0.85 0,1.29 0,2.24c0,1.04 0,2.19 0,2.8c0,0.61 0,1.83 0,2.43c0,0.58 0,2.13 0,2.99c0,0.76 0,1.8 0,2.85c0,0.73 0,1.46 0,2.51c0,0.93 0,1.93 0,2.57c0,1.01 0,1.86 0,2.82c0,0.81 0,1.68 0,2.88c0,0.6 0,1.46 0,2.53c0,0.92 0,1.68 0,2.67c0,0.99 0,1.71 0,2.7c0,0.78 0,1.78 0,2.68c0,0.77 0,1.77 0,2.47c0,1.05 0,1.71 0,2.71c0,0.67 0,1.45 0,2.32c0,1.47 0,2 0,3.1c0,0.57 0,1.15 0,2.33c0,1.2 0,1.8 0,3.01c0,0.61 0,1.23 0,2.51c0,0.66 0,2.02 0,2.73c0,0.73 0,1.48 0,2.25c0,0.79 0,1.6 0,2.43c0,0.85 0,2.61 0,3.52c0,0.93 0,1.88 0,2.85c0,0.99 0,2 0,3.03c0,1.05 0,3.21 0,4.32c0,1.12 0,2.26 0,3.4c0,1.14 0,2.27 0,3.4c0,1.11 0,3.26 0,4.3c0,1.01 0,1.99 0,2.95c0,0.94 0,1.85 0,2.75c0,0.88 0,2.6 0,3.45c0,0.83 0,1.65 0,2.45c0,0.78 0,1.55 0,2.29c0,0.72 0,2.08 0,2.71c0,0.61 0,1.2 0,1.77c0,0.56 0,1.1 0,1.64c0,0.54 0,1.62 0,2.18c0,0.57 0,1.15 0,1.76c0,0.63 0,1.28 0,1.95c0,0.71 0,2.23 0,3.05c0,0.85 0,1.73 0,2.62c0,0.9 0,1.8 0,2.69c0,0.87 0,2.54 0,3.32c0,0.75 0,1.47 0,2.16c0,0.68 0,1.35 0,2.02c0,0.67 0,2.04 0,2.75c0,0.72 0,1.45 0,2.19c0,0.73 0,1.45 0,2.15c0,0.68 0,1.95 0,2.53c0,0.55 0,1.09 0,1.63c0,1.1 0,1.7 0,2.34c0,1.46 0,2.29 0,3.21c0,0.97 0,2.01 0,3.08c0,1.12 0,2.27 0,3.44c0,2.39 0,3.59 0,4.79c0,1.2 0,2.4 0,3.6c0,1.2 0,2.4 0,3.6c0,2.4 0,3.6 0,4.8c0,1.2 0,2.4 0,3.6c0,1.2 0,2.4 0,3.6c0,2.4 0,3.6 0,4.8c0,1.2 0,2.39 0,3.58c0,1.18 0,2.36 0,3.54c0,2.32 0,3.47 0,4.62c0,1.17 0,2.36 0,3.6c0,1.29 0,2.65 0,4.09c0,3.18 0,4.93 0,6.78c0,1.91 0,3.85 0,5.79c0,1.92 0,3.79 0,5.57c0,3.2 0,4.57 0,5.79c0,1.09 0,2.07 0,2.96c0,0.82 0,1.59 0,2.32c0,1.47 0,2.23 0,3.02c0,0.8 0,1.61 0,2.43c0,0.81 0,1.61 0,2.38c0,1.47 0,2.15 0,2.79c0,0.61 0,1.18 0,1.72c0,0.51 0,0.99 0,1.45c0,0.84 0,1.23 0,1.6c0,0.35 0,0.68 0,0.99c0,0.29 0,0.56 0,0.81c0,0.44 0,0.63 0,0.8c0,0.16 0,0.3 0,0.43c0,0.12 0,0.23 0,0.34c0,0.2 0,0.3 0,0.41c0,0.11 0,0.24 0,0.38c0,0.16 0,0.35 0,0.56c0,0.53 0,0.84 0,1.2c0,0.38 0,0.79 0,1.22c0,0.44 0,0.9 0,1.36c0,0.91 0,1.36 0,1.79c0,0.42 0,0.84 0,1.24c0,0.39 0,0.78 0,1.15c0,0.72 0,1.07 0,1.4c0,0.33 0,0.65 0,1.27c0,0.61 0,1.81 0,2.73c0,0.64 0,1.65 0,2.74c0,0.78 0,1.6 0,2.02c0,1.33 0,2.27 0,3.23c0,0.49 0,1.48 0,2.48c0,1 0,1.99 0,2.48c0,0.96 0,2.35 0,2.8c0,0.86 -0.01,1.68 0.06,2.46c0.12,1.44 0.29,2.1 0.52,2.98c0.25,0.95 0.37,1.78 0.65,2.6c0.24,0.72 0.6,1.68 0.76,2.48c0.17,0.8 0.72,1.8 1.2,2.4c0.64,0.8 1.07,1.4 1.44,2.04c0.55,0.93 1.01,1.72 1.37,2.22c0.5,0.7 1.49,1.33 1.98,2.04c0.52,0.74 0.93,1.33 1.32,1.91c0.63,0.93 0.58,1.87 1.27,2.71c0.48,0.58 1.26,1.08 1.43,1.97l0,0.92l0,0.91" fill="none" fill-opacity="null" id="svg_5" stroke="#000000" stroke-dasharray="null" stroke-linecap="null" stroke-linejoin="null" stroke-opacity="null" stroke-width="5" transform="matrix(1, 0, 0, 1, 0, 0)"/>
  <line fill="none" fill-opacity="null" id="svg_6" stroke="#000000" stroke-dasharray="null" stroke-linecap="null" stroke-linejoin="null" stroke-opacity="null" stroke-width="5" x1="11.67" x2="7.67" y1="59.33" y2="397.33"/>
  <path d="m47.67,176.33c0.97,-0.9 1.56,-0.8 2.37,-0.49c1.15,0.45 1.82,0.81 2.59,1.19c0.83,0.42 1.69,0.87 2.58,1.35c0.9,0.49 1.8,0.99 2.67,1.49c1.62,0.94 2.34,1.38 3,1.8c0.63,0.4 1.22,0.8 1.81,1.21c0.6,0.42 1.21,0.87 1.85,1.35c1.46,1.09 2.3,1.72 3.2,2.4c0.96,0.72 1.96,1.46 2.99,2.22c1.04,0.77 2.08,1.53 3.12,2.26c1.97,1.4 2.91,2.02 3.79,2.59c0.83,0.55 1.64,1.05 2.4,1.52c0.73,0.45 1.45,0.88 2.13,1.3c1.33,0.8 1.97,1.2 2.6,1.6c0.62,0.39 1.22,0.78 1.81,1.16c0.57,0.37 1.11,0.73 1.63,1.07c0.96,0.64 1.39,0.93 1.8,1.2c0.38,0.25 0.74,0.49 1.07,0.71c0.31,0.21 0.61,0.4 0.89,0.57c0.52,0.32 0.77,0.47 1,0.6c0.66,0.37 1.7,0.86 2.28,1.19c0.76,0.43 1.55,1.16 1.96,1.83c0.47,0.79 1.02,1.43 1.63,2.05c0.65,0.65 1.28,1.34 1.98,1.81c0.64,0.44 1.45,0.77 2.42,1.3c0.71,0.38 1.16,1.21 1.98,1.62c0.59,0.29 1.64,0.27 2.43,0.6c1.02,0.43 1.61,0.78 2.27,1.12c1.06,0.53 1.69,0.86 2.39,1.18c0.72,0.33 1.44,0.69 2.85,1.02c0.64,0.15 1.6,0.21 2.49,0.5c0.93,0.31 1.52,0.71 2.16,1.08c1.01,0.59 1.73,1 2.48,1.39c0.77,0.4 1.17,0.6 2.36,1.2c0.8,0.4 1.61,0.81 2.44,1.24c0.42,0.22 1.73,0.93 2.19,1.19c0.94,0.53 1.42,0.81 2.42,1.35c0.51,0.28 1.03,0.57 2.67,1.3c0.56,0.25 1.12,0.47 2.24,0.88c0.54,0.2 1.07,0.38 2.54,0.88c0.84,0.28 1.58,0.52 2.23,0.76c1.11,0.4 2.03,0.81 2.66,1.11c1.01,0.49 1.54,0.9 2.58,1.18c0.8,0.22 1.74,0.12 2.56,0.12c0.94,0 1.81,-0.08 2.71,0c0.93,0.08 1.58,0.48 2.44,0.71c0.99,0.27 1.58,0.25 2.59,0.34c1.22,0.1 1.69,0.16 2.68,0.3c0.52,0.07 1.57,0.23 2.59,0.36c0.95,0.12 1.79,0.2 2.87,0.28c0.61,0.05 1.68,0.17 2.56,0.52c0.63,0.25 1.61,0.81 2.22,1.04c0.98,0.37 1.8,0.43 2.8,0.44c0.79,0.01 1.83,0 2.7,0c0.83,0 1.79,0 2.52,0c0.99,0 1.79,0 2.79,0c0.8,0 1.6,0 2.6,0c0.8,0 1.8,0 2.67,0c1.06,0 1.7,0 2.43,0c0.83,0 1.75,0 2.8,0c1.17,0 1.83,0.01 2.56,0.05c0.8,0.04 1.68,0.12 2.66,0.23c1.09,0.13 3.62,0.54 5.09,0.82c1.59,0.31 3.28,0.67 5.05,1.07c1.84,0.42 3.72,0.87 5.63,1.34c1.92,0.48 5.69,1.47 7.52,1.98c1.78,0.5 3.53,1 5.25,1.51c1.7,0.51 3.38,1.02 5.05,1.55c1.67,0.52 5.04,1.61 6.75,2.16c1.73,0.56 3.47,1.12 5.23,1.67c1.77,0.55 3.55,1.09 5.34,1.58c1.79,0.5 5.39,1.37 7.19,1.74c1.79,0.36 3.59,0.67 5.38,0.94c1.78,0.27 3.55,0.51 5.31,0.73c1.74,0.22 5.18,0.62 6.87,0.82c1.67,0.2 3.34,0.4 4.99,0.58c1.65,0.18 3.3,0.36 4.96,0.51c1.66,0.15 5.03,0.39 6.74,0.47c1.72,0.08 3.46,0.13 5.21,0.15c1.75,0.02 3.5,0.01 5.24,-0.03c1.74,-0.04 5.17,-0.2 6.86,-0.32c1.67,-0.12 3.32,-0.27 4.95,-0.47c1.61,-0.2 3.2,-0.43 4.77,-0.72c1.55,-0.29 4.6,-1.01 6.08,-1.45c1.49,-0.44 2.98,-0.94 4.48,-1.49c1.54,-0.56 3.11,-1.17 4.73,-1.81c1.69,-0.67 5.3,-2.11 7.25,-2.87c2.03,-0.79 4.13,-1.59 6.28,-2.4c2.19,-0.82 4.39,-1.63 6.61,-2.42c2.2,-0.78 6.5,-2.26 8.57,-2.93c2.01,-0.65 3.97,-1.26 5.87,-1.83c1.85,-0.56 3.65,-1.08 5.4,-1.58c1.71,-0.49 4.99,-1.41 6.57,-1.85c1.54,-0.43 3.04,-0.86 4.49,-1.27c1.41,-0.4 2.78,-0.8 4.09,-1.18c1.27,-0.37 3.67,-1.09 4.8,-1.44c1.08,-0.33 2.11,-0.66 3.09,-0.98c0.94,-0.3 1.83,-0.6 2.67,-0.88c0.8,-0.27 2.29,-0.79 2.96,-1.04c0.64,-0.23 1.24,-0.46 1.81,-0.67c0.53,-0.2 1.03,-0.4 1.49,-0.59c0.43,-0.17 1.19,-0.49 1.53,-0.64c0.31,-0.14 0.6,-0.26 0.87,-0.39c0.26,-0.12 0.5,-0.23 0.74,-0.33c0.24,-0.1 0.72,-0.31 0.98,-0.4c0.27,-0.1 0.55,-0.21 0.86,-0.31c0.32,-0.11 0.68,-0.23 1.05,-0.35c0.41,-0.13 1.33,-0.41 1.85,-0.56c0.56,-0.17 1.16,-0.34 1.8,-0.54c0.68,-0.2 1.4,-0.42 2.16,-0.66c0.8,-0.25 2.52,-0.81 3.44,-1.12c0.96,-0.33 1.97,-0.67 3.03,-1.03c1.11,-0.37 2.27,-0.76 3.5,-1.14c1.28,-0.4 4.05,-1.2 5.53,-1.59c1.54,-0.41 3.14,-0.81 4.79,-1.21c1.68,-0.41 3.4,-0.82 5.13,-1.25c1.75,-0.43 5.26,-1.3 7,-1.76c1.73,-0.46 3.42,-0.93 5.08,-1.41c1.62,-0.48 3.18,-0.96 4.67,-1.47c1.43,-0.48 4.02,-1.48 5.16,-2c1.07,-0.48 2.04,-0.98 2.93,-1.48c0.84,-0.47 1.61,-0.94 2.32,-1.41c0.68,-0.44 1.92,-1.28 2.52,-1.67c0.57,-0.38 1.14,-0.74 1.7,-1.09c0.56,-0.35 1.13,-0.7 1.7,-1.06c0.59,-0.36 1.84,-1.13 2.5,-1.54c0.69,-0.43 1.41,-0.87 2.15,-1.34c0.77,-0.48 1.55,-0.97 2.35,-1.48c0.82,-0.52 2.5,-1.6 3.35,-2.16c0.87,-0.56 1.74,-1.13 2.64,-1.7c0.9,-0.58 1.82,-1.15 2.76,-1.72c0.95,-0.57 2.91,-1.69 3.92,-2.23c1.02,-0.54 2.06,-1.06 3.1,-1.58c1.04,-0.51 2.07,-1 3.1,-1.49c1.01,-0.48 2.96,-1.39 3.9,-1.84c0.92,-0.44 1.83,-0.88 2.74,-1.34c0.93,-0.46 1.88,-0.95 2.87,-1.46c1.04,-0.54 3.29,-1.75 4.53,-2.43c1.3,-0.71 2.63,-1.45 3.99,-2.2c1.36,-0.75 2.69,-1.5 3.99,-2.22c1.24,-0.69 3.45,-1.91 4.39,-2.43c0.84,-0.46 1.58,-0.86 2.25,-1.22c0.6,-0.33 1.16,-0.63 1.67,-0.91c0.5,-0.28 1.47,-0.85 1.98,-1.16c0.53,-0.33 1.08,-0.68 1.65,-1.05c0.59,-0.39 1.2,-0.8 1.83,-1.23c0.65,-0.45 2.01,-1.41 2.72,-1.92c0.73,-0.53 1.49,-1.08 2.27,-1.64c0.81,-0.58 1.65,-1.18 2.52,-1.78c0.9,-0.63 2.83,-1.91 3.85,-2.56c1.05,-0.67 2.15,-1.34 3.28,-2.01c1.16,-0.69 2.35,-1.38 3.57,-2.07c1.24,-0.7 3.8,-2.1 5.11,-2.79c1.32,-0.7 2.66,-1.39 4.01,-2.05c1.35,-0.66 2.69,-1.29 4.04,-1.87c1.33,-0.57 3.97,-1.57 5.26,-1.98c1.26,-0.4 2.48,-0.73 3.67,-1.02c1.13,-0.28 2.2,-0.5 3.2,-0.71c0.92,-0.19 2.52,-0.51 3.17,-0.66c0.56,-0.13 1.04,-0.26 1.45,-0.38c0.35,-0.1 0.65,-0.2 0.92,-0.29l0.23,-0.07" fill="#ff7f00" id="svg_10" stroke="#000000" stroke-dasharray="null" stroke-linecap="null" stroke-linejoin="null" stroke-opacity="null" stroke-width="5"/>
  <path d="m24.67,319.33c1.54,-1.99 2.02,-2.74 2.63,-3.6c0.33,-0.48 0.7,-0.98 1.12,-1.49c0.9,-1.09 1.44,-1.64 2,-2.19c0.58,-0.58 1.19,-1.15 1.82,-1.74c0.64,-0.59 1.3,-1.18 1.96,-1.78c1.32,-1.2 1.96,-1.8 2.59,-2.39c0.62,-0.59 1.22,-1.16 1.81,-1.72c0.56,-0.54 1.1,-1.06 1.63,-1.54c0.95,-0.88 1.8,-1.6 2.18,-1.92c0.69,-0.57 1.35,-1.02 2.11,-1.79c0.75,-0.75 1.15,-1.34 1.51,-1.94c0.69,-1.17 0.94,-1.78 1.22,-2.66c0.33,-1.06 0.16,-1.84 0.53,-2.66c0.34,-0.74 1.23,-1.27 1.63,-2c0.48,-0.89 0.8,-1.61 1.29,-2.57c0.3,-0.59 0.62,-1.4 1.5,-1.98c0.75,-0.49 1.28,-0.83 1.98,-1.79c0.35,-0.48 0.82,-1.26 1.49,-2.09c0.51,-0.63 1.35,-1.15 2.03,-1.45c0.74,-0.33 1.69,-0.84 2.35,-1.53c0.52,-0.55 1.12,-1.2 2,-1.76c0.63,-0.39 1.26,-0.75 2.38,-1.17c0.82,-0.3 1.54,-0.66 2.32,-1.04c0.97,-0.48 1.68,-0.61 2.48,-0.83c0.44,-0.12 1.96,-0.53 2.52,-0.69c0.59,-0.16 1.82,-0.51 2.46,-0.7c0.64,-0.19 1.28,-0.38 1.91,-0.58c1.83,-0.58 2.42,-0.8 3.02,-1.01c0.64,-0.21 1.33,-0.44 2.1,-0.66c0.85,-0.25 1.8,-0.52 4.11,-1.06c1.37,-0.32 2.89,-0.64 4.52,-0.97c1.72,-0.35 3.5,-0.7 5.34,-1.04c1.85,-0.35 3.7,-0.69 7.31,-1.32c1.72,-0.3 3.38,-0.57 4.99,-0.82c1.58,-0.25 3.15,-0.48 4.71,-0.69c1.57,-0.22 3.16,-0.43 6.46,-0.82c1.73,-0.21 3.51,-0.4 5.35,-0.59c1.88,-0.19 3.8,-0.37 5.75,-0.54c1.98,-0.16 3.99,-0.33 8.07,-0.54c2.05,-0.1 4.12,-0.17 6.18,-0.22c2.07,-0.05 4.13,-0.08 6.19,-0.09c2.05,-0.02 4.09,-0.02 8.13,-0.02c1.99,0 3.95,0 5.87,0c1.88,0 3.71,0 5.48,0c1.7,0 3.33,0 6.31,0c1.35,0 2.61,0 3.78,0c1.09,0 2.11,-0.01 3.07,-0.03c0.9,-0.02 1.75,-0.03 3.31,-0.13c0.74,-0.05 1.44,-0.11 2.13,-0.19c0.66,-0.07 1.31,-0.15 1.94,-0.22c0.62,-0.07 1.23,-0.15 2.43,-0.26c0.6,-0.05 1.21,-0.09 1.82,-0.11c0.63,-0.02 1.28,-0.04 1.96,-0.05c0.71,-0.01 1.45,-0.01 3.05,-0.01c0.87,0 1.78,0 2.72,0c0.95,0 1.9,0 2.85,0c0.92,0 1.81,0 3.43,0c0.72,0 1.37,0 1.98,0c0.57,0 1.12,0 1.65,0c0.53,0 1.06,0 2.2,0c0.62,0 1.28,0 1.98,0c0.74,0 1.52,0 2.34,0c0.86,0 1.76,0 3.68,0c1.02,0 2.07,0 3.13,0c1.07,0 2.14,0 3.19,0c1.03,0 2.02,0 3.84,0c0.82,0 1.58,0 2.32,0c0.72,0 1.43,0 2.17,0c0.78,0 1.61,0 3.51,0c1.1,0 2.3,0 3.58,0c1.34,0 2.74,0 4.16,0c1.45,0 2.9,0 5.76,0c1.38,0 2.72,0 4.03,0c1.28,0 2.53,0 3.75,0c1.2,0 2.39,0 4.71,0c1.15,0 2.28,0 3.41,0c1.12,0 2.24,0 3.35,0c1.11,0 2.21,0 4.41,0c1.1,0 2.2,0 3.29,0c1.08,0 2.15,0 3.21,0c1.04,0 2.05,0 4.01,0c0.94,0 1.84,0 2.72,0c0.85,0 1.68,0 2.48,0c0.78,0 1.53,0 2.97,0c0.69,0 1.36,0 2.01,0c0.64,0 1.26,0 1.86,0c0.59,0 1.17,0 2.29,0c0.54,0 1.08,0 1.6,0c0.5,0 0.99,0 1.45,0c0.44,0 0.86,0 1.62,0c0.34,0 0.65,0 0.96,0c0.31,0 0.62,0 0.96,0c0.37,0 0.77,0 1.75,0c0.58,0 1.24,0 1.96,0c0.79,0 1.64,0 2.56,0c0.98,0 2.03,0 4.31,0c1.23,0 2.5,0 3.82,0c1.34,0 2.68,0 4.03,0c1.34,0 2.65,0 5.15,0c1.17,0 2.31,0 3.42,0c1.12,0 2.26,0 3.45,0c1.25,0 2.6,0 5.62,0c1.72,0 3.57,0 5.51,0c2.02,0 4.09,0 6.19,0c2.1,0 4.17,0 8.13,0c1.85,0 3.6,0 5.26,0c1.57,0 3.05,0 4.44,0c1.31,0 2.55,0 4.79,0c1.02,0 1.96,0 2.85,0c0.82,0 1.59,0 2.3,0c0.66,0 1.27,0 2.35,0c0.48,0 0.93,0 1.37,0c0.43,0 0.86,0 1.31,0c0.47,0 0.98,0 2.16,0c0.69,0 1.45,0 2.31,0c0.96,0 2.02,0.01 3.21,0.03c1.32,0.02 2.77,0.04 6.15,0.13c1.93,0.05 4.02,0.12 6.24,0.2c2.35,0.09 4.8,0.19 7.34,0.32c2.62,0.13 5.29,0.26 10.75,0.65c2.75,0.2 5.5,0.43 8.22,0.67c2.69,0.24 5.32,0.49 7.88,0.74c2.48,0.24 4.85,0.49 9.23,0.92c1.98,0.19 3.83,0.37 5.59,0.52c1.68,0.15 3.32,0.28 4.94,0.39c1.63,0.12 3.28,0.23 6.8,0.42c1.9,0.11 3.91,0.2 6.01,0.31c2.19,0.11 4.45,0.23 6.78,0.36c2.4,0.14 4.85,0.27 9.87,0.66c2.56,0.2 5.12,0.43 7.66,0.67c2.49,0.23 4.9,0.48 7.2,0.71c2.17,0.22 4.19,0.44 7.63,0.79c1.38,0.14 2.55,0.25 3.53,0.33c0.81,0.07 1.47,0.12 2.02,0.17c0.45,0.04 0.83,0.06 1.46,0.16c0.3,0.05 0.6,0.12 0.9,0.19c0.29,0.08 0.58,0.16 0.87,0.25c0.28,0.09 0.55,0.19 1.07,0.39c0.25,0.1 0.48,0.2 0.7,0.3c0.21,0.09 0.4,0.18 0.58,0.27c0.16,0.08 0.31,0.15 0.55,0.27c0.09,0.05 0.16,0.08 0.23,0.11c0.05,0.02 0.1,0.04 0.16,0.05c0.05,0.01 0.12,0.01 0.28,0.01c0.11,0 0.24,0 0.38,0c0.16,0 0.33,0 0.51,0c0.19,0 0.38,0 0.78,0c0.2,0 0.4,0 0.6,0c0.2,0 0.4,0.01 0.6,0.03c0.2,0.02 0.4,0.04 0.8,0.13c0.2,0.05 0.4,0.12 0.6,0.19c0.2,0.08 0.4,0.16 0.6,0.25c0.2,0.09 0.4,0.19 0.8,0.39c0.2,0.1 0.4,0.2 0.6,0.3c0.2,0.1 0.4,0.2 0.6,0.3c0.2,0.1 0.4,0.2 0.8,0.4c0.2,0.1 0.4,0.2 0.6,0.3c0.2,0.1 0.4,0.2 0.6,0.3c0.2,0.1 0.4,0.2 0.8,0.4c0.2,0.1 0.4,0.2 0.6,0.3c0.2,0.1 0.4,0.2 0.6,0.3c0.2,0.1 0.4,0.2 0.8,0.4c0.2,0.1 0.4,0.2 0.6,0.3c0.2,0.1 0.4,0.21 0.6,0.33c0.2,0.12 0.41,0.24 0.8,0.53c0.2,0.15 0.4,0.32 0.6,0.49c0.2,0.18 0.4,0.36 0.6,0.55c0.2,0.19 0.4,0.39 0.8,0.79c0.2,0.2 0.4,0.4 0.61,0.6c0.21,0.21 0.43,0.42 0.66,0.63c0.24,0.22 0.49,0.45 1.06,0.93c0.31,0.26 0.63,0.52 0.97,0.79c0.34,0.27 0.69,0.55 1.04,0.82c0.35,0.27 0.69,0.54 1.32,1.06c0.29,0.24 0.56,0.48 0.82,0.7c0.24,0.21 0.47,0.42 0.69,0.61c0.21,0.19 0.41,0.37 0.82,0.68c0.2,0.15 0.4,0.28 0.6,0.41c0.2,0.12 0.4,0.24 0.6,0.35c0.2,0.11 0.4,0.21 0.8,0.41c0.2,0.1 0.4,0.2 0.6,0.3c0.2,0.1 0.4,0.2 0.6,0.3c0.2,0.1 0.4,0.2 0.8,0.4c0.2,0.1 0.4,0.2 0.61,0.31c0.21,0.11 0.43,0.23 0.66,0.36c0.24,0.14 0.5,0.29 1.06,0.66c0.31,0.21 0.63,0.43 0.97,0.67c0.34,0.24 0.68,0.49 1.01,0.74c0.33,0.24 0.64,0.48 1.19,0.92c0.24,0.19 0.45,0.36 0.63,0.52c0.16,0.14 0.31,0.27 0.44,0.39c0.12,0.11 0.23,0.22 0.43,0.42c0.1,0.1 0.2,0.2 0.3,0.3c0.1,0.1 0.21,0.19 0.33,0.27c0.12,0.08 0.24,0.17 0.53,0.27c0.15,0.05 0.32,0.08 0.48,0.11c0.17,0.03 0.33,0.05 0.49,0.08c0.15,0.03 0.3,0.03 0.53,0.14c0.1,0.05 0.17,0.12 0.23,0.19c0.06,0.08 0.1,0.16 0.16,0.25c0.05,0.09 0.1,0.2 0.28,0.39c0.1,0.11 0.23,0.2 0.38,0.3c0.15,0.1 0.33,0.19 0.51,0.27c0.19,0.08 0.38,0.16 0.78,0.27c0.2,0.05 0.4,0.08 0.6,0.11c0.2,0.03 0.4,0.05 0.6,0.08c0.2,0.03 0.4,0.05 0.8,0.14c0.2,0.05 0.4,0.11 0.59,0.19c0.19,0.07 0.37,0.16 0.54,0.25c0.16,0.09 0.32,0.17 0.54,0.39c0.1,0.09 0.17,0.2 0.23,0.3c0.06,0.09 0.1,0.19 0.16,0.27c0.05,0.08 0.1,0.17 0.28,0.27c0.1,0.06 0.24,0.09 0.38,0.11c0.16,0.03 0.33,0.05 0.51,0.08c0.19,0.03 0.38,0.05 0.78,0.14c0.2,0.05 0.4,0.12 0.61,0.2c0.21,0.08 0.91,0.4 1.72,0.8c0.98,0.48 1.68,0.84 2.42,1.18c1.08,0.5 1.76,0.78 2.39,1.01c0.83,0.3 1.92,0.44 2.65,0.73c0.79,0.31 1.53,1.01 2.22,1.44c0.58,0.36 1.58,1.14 2,1.5c0.66,0.58 1.65,1.39 2.2,1.76c0.54,0.36 1.59,0.97 2.53,1.15c0.75,0.14 1.73,0.07 2.64,0.08l0.61,0.51l0.35,0.77l0.65,0.7" fill="#0000ff" id="svg_11" stroke="#000000" stroke-dasharray="null" stroke-linecap="null" stroke-linejoin="null" stroke-opacity="null" stroke-width="5" transform="matrix(1, 0, 0, 1, 0, 0)"/>
  <line fill="none" id="svg_12" stroke="#000000" stroke-dasharray="null" stroke-linecap="null" stroke-linejoin="null" stroke-opacity="null" stroke-width="5" transform="matrix(1, 0, 0, 1, 0, 0)" x1="84.67" x2="464.67" y1="62.33" y2="47.33"/>
  <rect fill="#7f0000" height="93" id="svg_13" stroke="#000000" stroke-dasharray="null" stroke-linecap="null" stroke-linejoin="null" stroke-opacity="null" stroke-width="5" width="381" x="124.67" y="356.33"/>
 </g>
</svg>